<svg class="w-full h-full js-svg-color" xmlns="http://www.w3.org/2000/svg" width="357" height="245" viewBox="0 0 357 245" fill="none"><path d="M0.5 156.117V244.999" stroke="#F7F5F2" stroke-miterlimit="10" style="stroke: rgb(255, 255, 255); stroke-dashoffset: 0px; stroke-dasharray: 88.882; opacity: 1;"></path><path d="M30.1562 149.121V245.001" stroke="#F7F5F2" stroke-miterlimit="10" style="stroke: rgb(255, 255, 255); stroke-dashoffset: 0px; stroke-dasharray: 95.88; opacity: 1;"></path><path d="M59.8203 137.729V245" stroke="#F7F5F2" stroke-miterlimit="10" style="stroke: rgb(255, 255, 255); stroke-dashoffset: 0px; stroke-dasharray: 107.271; opacity: 1;"></path><path d="M89.4766 151.918V245" stroke="#F7F5F2" stroke-miterlimit="10" style="stroke: rgb(255, 255, 255); stroke-dashoffset: 0px; stroke-dasharray: 93.082; opacity: 1;"></path><path d="M119.141 128.836V245.001" stroke="#F7F5F2" stroke-miterlimit="10" style="stroke: rgb(255, 255, 255); stroke-dashoffset: 0px; stroke-dasharray: 116.165; opacity: 1;"></path><path d="M148.805 112.223V245" stroke="#F7F5F2" stroke-miterlimit="10" style="stroke: rgb(255, 255, 255); stroke-dashoffset: 0px; stroke-dasharray: 132.777; opacity: 1;"></path><path d="M178.461 96.3672V245.001" stroke="#F7F5F2" stroke-miterlimit="10" style="stroke: rgb(255, 255, 255); stroke-dashoffset: 0px; stroke-dasharray: 148.634; opacity: 1;"></path><path d="M208.117 112.223V245" stroke="#F7F5F2" stroke-miterlimit="10" style="stroke: rgb(255, 255, 255); stroke-dashoffset: 0px; stroke-dasharray: 132.777; opacity: 1;"></path><path d="M237.781 128.836V245.001" stroke="#F7F5F2" stroke-miterlimit="10" style="stroke: rgb(255, 255, 255); stroke-dashoffset: 0px; stroke-dasharray: 116.165; opacity: 1;"></path><path d="M267.438 151.918V245" stroke="#F7F5F2" stroke-miterlimit="10" style="stroke: rgb(255, 255, 255); stroke-dashoffset: 0px; stroke-dasharray: 93.082; opacity: 1;"></path><path d="M297.102 137.729V245" stroke="#F7F5F2" stroke-miterlimit="10" style="stroke: rgb(255, 255, 255); stroke-dashoffset: 0px; stroke-dasharray: 107.271; opacity: 1;"></path><path d="M326.766 149.121V245.001" stroke="#F7F5F2" stroke-miterlimit="10" style="stroke: rgb(255, 255, 255); stroke-dashoffset: 0px; stroke-dasharray: 95.88; opacity: 1;"></path><path d="M356.422 130.029V245" stroke="#F7F5F2" stroke-miterlimit="10" style="stroke: rgb(255, 255, 255); stroke-dashoffset: 0px; stroke-dasharray: 114.971; opacity: 1;"></path><path d="M178.457 204.367C234.615 204.367 280.14 158.842 280.14 102.683C280.14 46.5253 234.615 1 178.457 1C122.298 1 76.7734 46.5253 76.7734 102.683C76.7734 158.842 122.298 204.367 178.457 204.367Z" stroke="#F7F5F2" stroke-miterlimit="10" style="stroke: rgb(255, 255, 255); stroke-dashoffset: 0px; stroke-dasharray: 638.986; opacity: 1;"></path><path d="M178.463 96.3672C186.477 96.3672 192.973 89.8709 192.973 81.8574C192.973 73.844 186.477 67.3477 178.463 67.3477C170.449 67.3477 163.953 73.844 163.953 81.8574C163.953 89.8709 170.449 96.3672 178.463 96.3672Z" fill="#FCDC9B" style="stroke: rgb(255, 255, 255); stroke-dashoffset: 0px; stroke-dasharray: 91.1814; opacity: 1; fill: rgb(252, 220, 155);"></path><path d="M148.748 95.6172C153.196 95.6172 156.802 99.2224 156.802 103.67C156.802 108.117 153.196 111.724 148.748 111.724C144.301 111.723 140.695 108.117 140.695 103.67C140.696 99.2225 144.301 95.6174 148.748 95.6172Z" stroke="#F7F5F2" style="stroke: rgb(255, 255, 255); stroke-dashoffset: 0px; stroke-dasharray: 50.6071; opacity: 1;"></path><path d="M208.139 95.6172C212.586 95.6172 216.192 99.2224 216.192 103.67C216.192 108.117 212.586 111.724 208.139 111.724C203.692 111.723 200.086 108.117 200.086 103.67C200.086 99.2225 203.692 95.6174 208.139 95.6172Z" stroke="#F7F5F2" style="stroke: rgb(255, 255, 255); stroke-dashoffset: 0px; stroke-dasharray: 50.6057; opacity: 1;"></path><path d="M237.779 112.23C242.226 112.23 245.833 115.836 245.833 120.283C245.833 124.731 242.226 128.337 237.779 128.337C233.332 128.337 229.727 124.731 229.727 120.283C229.727 115.836 233.333 112.231 237.779 112.23Z" stroke="#F7F5F2" style="stroke: rgb(255, 255, 255); stroke-dashoffset: 0px; stroke-dasharray: 50.6061; opacity: 1;"></path><path d="M119.139 112.23C123.586 112.23 127.192 115.836 127.192 120.283C127.192 124.731 123.586 128.337 119.139 128.337C114.691 128.337 111.086 124.731 111.086 120.283C111.086 115.836 114.691 112.231 119.139 112.23Z" stroke="#F7F5F2" style="stroke: rgb(255, 255, 255); stroke-dashoffset: 0px; stroke-dasharray: 50.6066; opacity: 1;"></path></svg>
