<svg class="w-full h-full js-svg-color" xmlns="http://www.w3.org/2000/svg" width="290" height="279" viewBox="0 0 290 279" fill="none"><g clip-path="url(#clip0_6279_4650)"><path d="M49.7422 278.754V196.557H245.574V257.833H66.3487L49.7422 278.754Z" stroke="#F7F5F2" stroke-miterlimit="10" style="stroke: rgb(255, 255, 255); stroke-dashoffset: 0px; stroke-dasharray: 545.241; opacity: 1;"></path><path d="M17.6934 197.057C27.2476 197.057 34.9961 204.832 34.9961 214.426C34.996 224.02 27.2476 231.795 17.6934 231.795C8.13917 231.795 0.39067 224.02 0.390625 214.426C0.390625 204.832 8.13915 197.057 17.6934 197.057Z" stroke="#F7F5F2" style="stroke: rgb(255, 255, 255); stroke-dashoffset: 0px; stroke-dasharray: 108.94; opacity: 1;"></path><path d="M92.4688 182.26V100.062H288.3V161.339H109.075L92.4688 182.26Z" stroke="#F7F5F2" stroke-miterlimit="10" style="stroke: rgb(255, 255, 255); stroke-dashoffset: 0px; stroke-dasharray: 545.242; opacity: 1;"></path><path d="M60.4201 135.801C70.2522 135.801 78.2229 127.8 78.2229 117.932C78.2229 108.063 70.2522 100.062 60.4201 100.062C50.5879 100.062 42.6172 108.063 42.6172 117.932C42.6172 127.8 50.5879 135.801 60.4201 135.801Z" fill="#FCDC9B" style="stroke: rgb(255, 255, 255); stroke-dashoffset: 0px; stroke-dasharray: 112.083; opacity: 1; fill: rgb(252, 220, 155);"></path><path d="M49.7422 85.768V3.57031H245.574V64.8469H66.3487L49.7422 85.768Z" stroke="#F7F5F2" stroke-miterlimit="10" style="stroke: rgb(255, 255, 255); stroke-dashoffset: 0px; stroke-dasharray: 545.242; opacity: 1;"></path><path d="M17.6934 4.07031C27.2476 4.07031 34.9961 11.8451 34.9961 21.4395C34.996 31.0337 27.2476 38.8086 17.6934 38.8086C8.13917 38.8085 0.39067 31.0337 0.390625 21.4395C0.390625 11.8452 8.13914 4.07039 17.6934 4.07031Z" stroke="#F7F5F2" style="stroke: rgb(255, 255, 255); stroke-dashoffset: 0px; stroke-dasharray: 108.94; opacity: 1;"></path></g><defs><clipPath id="clip0_6279_4650"><rect width="289.711" height="279" fill="white"></rect></clipPath></defs></svg>
